# xmcd
#
# Track frame offsets:
#	150
#	9285
#	23220
#	36337
#	50990
#	64305
#	74427
#	91047
#	105555
#	115392
#
# Disc length: 1684
#
# Revision: 2
# Processed by: cddbd v1.5.1PL0 Copyright (c) Steve Scherf et al.
# Submitted via: audiograbber 1.80.04
# Normalized: r1:TDELIM( - )
#
DISCID=8606920a
DTITLE=Various Artist - The Best Of Branson
DYEAR=1900
DGENRE=
TTITLE0=Mel Tillis - Sawmill
TTITLE1=Mickey Gilley - You Don't Know Me
TTITLE2=Louise Mandrell - Everlasting Love
TTITLE3=Bobby Vinton - My Elusive Dreams
TTITLE4=Moe Bandy - Yesterday Once More
TTITLE5=Andy Williams - In The Summertime
TTITLE6=David Allen Coe - Mona Lisa Lost Her Smile
TTITLE7=Eddie Rabbitt - Always Loving You
TTITLE8=Barbara Mandrell - Tonight My Baby's Coming Home
TTITLE9=The Oak Ridge Boys - Loves Me Like A Rock
EXTD=
EXTT0=
EXTT1=
EXTT2=
EXTT3=
EXTT4=
EXTT5=
EXTT6=
EXTT7=
EXTT8=
EXTT9=
PLAYORDER=
